<?xml version="1.0" encoding="utf-8"?>
<!-- Generator: Adobe Illustrator 24.0.0, SVG Export Plug-In . SVG Version: 6.00 Build 0)  -->
<svg version="1.1" xmlns="http://www.w3.org/2000/svg" xmlns:xlink="http://www.w3.org/1999/xlink" x="0px" y="0px"
	 viewBox="0 0 90 60" style="enable-background:new 0 0 90 60;" xml:space="preserve">
<style type="text/css">
	.st0{fill:#FFFFFF;}
	.st1{fill-rule:evenodd;clip-rule:evenodd;fill:url(#SVGID_1_);}
	.st2{fill:none;stroke:#00416B;stroke-miterlimit:10;}
	.st3{fill-rule:evenodd;clip-rule:evenodd;fill:#009EDE;}
	.st4{fill:#379EDD;}
	.st5{fill:#0076B6;}
	.st6{fill:#F8F8F8;}
	.st7{fill:url(#SVGID_2_);}
	.st8{fill:url(#SVGID_3_);}
	.st9{fill:url(#SVGID_4_);}
	.st10{opacity:0.2;fill:#F8F8F8;stroke:#0063A6;stroke-miterlimit:10;}
	.st11{opacity:0.3;fill:#F8F8F8;}
	.st12{opacity:0.26;fill-rule:evenodd;clip-rule:evenodd;fill:#379EDD;}
	.st13{fill-rule:evenodd;clip-rule:evenodd;fill:#F09373;}
	.st14{fill-rule:evenodd;clip-rule:evenodd;fill:#333258;}
	.st15{fill-rule:evenodd;clip-rule:evenodd;fill:#6D6D6D;}
	.st16{fill-rule:evenodd;clip-rule:evenodd;fill:#E2E2E2;}
	.st17{opacity:0.56;fill-rule:evenodd;clip-rule:evenodd;fill:#E2E2E2;}
	.st18{fill-rule:evenodd;clip-rule:evenodd;fill:#E8685B;}
	.st19{fill-rule:evenodd;clip-rule:evenodd;fill:#E4EAED;}
	.st20{fill-rule:evenodd;clip-rule:evenodd;fill:#ACB5DB;}
	.st21{fill-rule:evenodd;clip-rule:evenodd;fill:#F4A076;}
	.st22{fill-rule:evenodd;clip-rule:evenodd;fill:#379EDD;}
	.st23{fill-rule:evenodd;clip-rule:evenodd;fill:#1F1F40;}
	.st24{fill-rule:evenodd;clip-rule:evenodd;fill:#FFFFFF;}
	.st25{fill-rule:evenodd;clip-rule:evenodd;fill:#525475;}
	.st26{fill-rule:evenodd;clip-rule:evenodd;fill:#D39024;}
	.st27{fill-rule:evenodd;clip-rule:evenodd;fill:#F4AD85;}
	.st28{fill-rule:evenodd;clip-rule:evenodd;fill:url(#SVGID_5_);}
	.st29{fill-rule:evenodd;clip-rule:evenodd;fill:url(#SVGID_6_);}
	.st30{fill-rule:evenodd;clip-rule:evenodd;fill:url(#SVGID_7_);}
	.st31{fill-rule:evenodd;clip-rule:evenodd;fill:#F7941D;}
	.st32{fill:#FAB29A;}
	.st33{opacity:0.5;fill:#CC8A79;}
	.st34{fill-rule:evenodd;clip-rule:evenodd;fill:#BCBCBC;}
	.st35{fill-rule:evenodd;clip-rule:evenodd;fill:#1C6E8E;}
	.st36{fill-rule:evenodd;clip-rule:evenodd;fill:#CC7A1F;}
	.st37{fill-rule:evenodd;clip-rule:evenodd;fill:#F79826;}
	.st38{fill-rule:evenodd;clip-rule:evenodd;fill:url(#SVGID_8_);}
	.st39{fill-rule:evenodd;clip-rule:evenodd;fill:url(#SVGID_9_);}
	.st40{fill-rule:evenodd;clip-rule:evenodd;fill:url(#SVGID_10_);}
	.st41{fill-rule:evenodd;clip-rule:evenodd;fill:#999999;}
	.st42{fill-rule:evenodd;clip-rule:evenodd;fill:url(#SVGID_11_);}
	.st43{fill-rule:evenodd;clip-rule:evenodd;fill:url(#SVGID_12_);}
	.st44{fill-rule:evenodd;clip-rule:evenodd;fill:url(#SVGID_13_);}
	.st45{fill-rule:evenodd;clip-rule:evenodd;fill:url(#SVGID_14_);}
	.st46{fill-rule:evenodd;clip-rule:evenodd;fill:#FAB29A;}
	.st47{fill-rule:evenodd;clip-rule:evenodd;fill:#FECD33;}
	.st48{fill-rule:evenodd;clip-rule:evenodd;fill:url(#SVGID_15_);}
	.st49{fill-rule:evenodd;clip-rule:evenodd;fill:#D3A82F;}
	.st50{fill-rule:evenodd;clip-rule:evenodd;fill:url(#SVGID_16_);}
	.st51{fill-rule:evenodd;clip-rule:evenodd;fill:url(#SVGID_17_);}
	.st52{fill-rule:evenodd;clip-rule:evenodd;fill:url(#SVGID_18_);}
	.st53{display:none;opacity:0.4;}
	.st54{opacity:0.4;}
	.st55{display:inline;}
	.st56{display:none;}
	.st57{display:inline;clip-path:url(#SVGID_22_);}
	.st58{fill-rule:evenodd;clip-rule:evenodd;fill:#EAEAEA;}
	.st59{opacity:0.64;}
	.st60{fill-rule:evenodd;clip-rule:evenodd;fill:#A7A9AC;}
	.st61{fill:url(#SVGID_25_);}
	.st62{fill-rule:evenodd;clip-rule:evenodd;fill:#CC8A79;}
	.st63{fill:#CC8A79;}
	.st64{fill:#333132;}
	.st65{fill-rule:evenodd;clip-rule:evenodd;fill:#545456;}
	.st66{fill-rule:evenodd;clip-rule:evenodd;fill:#67686B;}
	.st67{fill:none;}
	.st68{opacity:0.62;fill:#999B9E;}
	.st69{fill:url(#SVGID_26_);}
	.st70{fill:url(#SVGID_27_);}
	.st71{opacity:0.6;}
	.st72{fill:#757679;}
	.st73{fill-rule:evenodd;clip-rule:evenodd;fill:#333132;}
	.st74{fill:url(#SVGID_28_);}
	.st75{fill:#999B9E;}
	.st76{fill:url(#SVGID_29_);}
	.st77{fill-rule:evenodd;clip-rule:evenodd;fill:#3693C1;}
	.st78{fill-rule:evenodd;clip-rule:evenodd;fill:#999B9E;}
	.st79{fill:#AFC4F0;}
	.st80{fill-rule:evenodd;clip-rule:evenodd;fill:#E8B191;}
	.st81{fill-rule:evenodd;clip-rule:evenodd;fill:#F8F8F8;}
	.st82{fill:#585366;}
	.st83{fill:#7184A6;}
	.st84{fill-rule:evenodd;clip-rule:evenodd;fill:#BA902A;}
	.st85{fill-rule:evenodd;clip-rule:evenodd;fill:#585366;}
	.st86{fill-rule:evenodd;clip-rule:evenodd;fill:#7184A6;}
	.st87{fill:#E8B191;}
	.st88{fill:#E4EAED;}
	.st89{fill-rule:evenodd;clip-rule:evenodd;fill:#D9D6D3;}
	.st90{fill-rule:evenodd;clip-rule:evenodd;fill:#EDBD35;}
	.st91{fill:#D19F86;}
	.st92{fill:url(#SVGID_30_);}
	.st93{fill-rule:evenodd;clip-rule:evenodd;fill:#367D99;}
	.st94{fill:#70748B;}
	.st95{fill:#525160;}
	.st96{fill-rule:evenodd;clip-rule:evenodd;fill:#D19F86;}
	.st97{fill-rule:evenodd;clip-rule:evenodd;fill:#525160;}
	.st98{fill-rule:evenodd;clip-rule:evenodd;fill:#899EBB;}
	.st99{fill-rule:evenodd;clip-rule:evenodd;fill:#00B0DF;}
	.st100{fill:#FECD33;}
	.st101{fill-rule:evenodd;clip-rule:evenodd;fill:url(#SVGID_31_);}
	.st102{fill-rule:evenodd;clip-rule:evenodd;fill:#E8E5E2;}
	.st103{fill-rule:evenodd;clip-rule:evenodd;fill:#757679;}
	.st104{fill-rule:evenodd;clip-rule:evenodd;fill:#BCB5B3;}
	.st105{fill-rule:evenodd;clip-rule:evenodd;fill:url(#SVGID_32_);}
	.st106{fill-rule:evenodd;clip-rule:evenodd;fill:url(#SVGID_33_);}
	.st107{opacity:0.26;fill-rule:evenodd;clip-rule:evenodd;fill:#BCB5B3;}
	.st108{fill:url(#SVGID_34_);}
	.st109{fill:url(#SVGID_35_);}
	.st110{fill:url(#SVGID_36_);}
	.st111{fill:url(#SVGID_37_);}
	.st112{fill:url(#SVGID_38_);}
	.st113{fill-rule:evenodd;clip-rule:evenodd;fill:url(#SVGID_39_);}
	.st114{fill-rule:evenodd;clip-rule:evenodd;fill:url(#SVGID_40_);}
	.st115{fill-rule:evenodd;clip-rule:evenodd;fill:url(#SVGID_41_);}
	.st116{fill-rule:evenodd;clip-rule:evenodd;fill:url(#SVGID_42_);}
	.st117{fill-rule:evenodd;clip-rule:evenodd;fill:url(#SVGID_43_);}
	.st118{fill-rule:evenodd;clip-rule:evenodd;fill:url(#SVGID_44_);}
	.st119{fill-rule:evenodd;clip-rule:evenodd;fill:#00416B;}
	.st120{fill-rule:evenodd;clip-rule:evenodd;fill:#004E74;}
	.st121{opacity:0.3;fill-rule:evenodd;clip-rule:evenodd;fill:#00416B;}
	.st122{fill-rule:evenodd;clip-rule:evenodd;fill:#006C90;}
	.st123{fill-rule:evenodd;clip-rule:evenodd;fill:url(#SVGID_45_);}
	.st124{fill-rule:evenodd;clip-rule:evenodd;fill:url(#SVGID_46_);}
	.st125{fill-rule:evenodd;clip-rule:evenodd;fill:url(#SVGID_47_);}
	.st126{fill-rule:evenodd;clip-rule:evenodd;fill:url(#SVGID_48_);}
	.st127{fill-rule:evenodd;clip-rule:evenodd;fill:url(#SVGID_49_);}
	.st128{fill-rule:evenodd;clip-rule:evenodd;fill:url(#SVGID_50_);}
	.st129{fill-rule:evenodd;clip-rule:evenodd;fill:url(#SVGID_51_);}
	.st130{opacity:0.3;fill-rule:evenodd;clip-rule:evenodd;fill:url(#SVGID_52_);}
	.st131{fill-rule:evenodd;clip-rule:evenodd;fill:url(#SVGID_53_);}
	.st132{fill-rule:evenodd;clip-rule:evenodd;fill:url(#SVGID_54_);}
	.st133{fill-rule:evenodd;clip-rule:evenodd;fill:url(#SVGID_55_);}
	.st134{fill-rule:evenodd;clip-rule:evenodd;fill:url(#SVGID_56_);}
	.st135{fill-rule:evenodd;clip-rule:evenodd;fill:url(#SVGID_57_);}
	.st136{fill-rule:evenodd;clip-rule:evenodd;fill:url(#SVGID_58_);}
	.st137{fill-rule:evenodd;clip-rule:evenodd;fill:url(#SVGID_59_);}
	.st138{fill-rule:evenodd;clip-rule:evenodd;fill:url(#SVGID_60_);}
	.st139{fill-rule:evenodd;clip-rule:evenodd;fill:url(#SVGID_61_);}
	.st140{opacity:0.3;fill-rule:evenodd;clip-rule:evenodd;fill:url(#SVGID_62_);}
	.st141{fill-rule:evenodd;clip-rule:evenodd;fill:url(#SVGID_63_);}
	.st142{fill-rule:evenodd;clip-rule:evenodd;fill:url(#SVGID_64_);}
	.st143{fill-rule:evenodd;clip-rule:evenodd;fill:url(#SVGID_65_);}
	.st144{fill-rule:evenodd;clip-rule:evenodd;fill:url(#SVGID_66_);}
	.st145{fill-rule:evenodd;clip-rule:evenodd;fill:url(#SVGID_67_);}
	.st146{fill-rule:evenodd;clip-rule:evenodd;fill:url(#SVGID_68_);}
	.st147{fill-rule:evenodd;clip-rule:evenodd;fill:url(#SVGID_69_);}
	.st148{fill-rule:evenodd;clip-rule:evenodd;fill:url(#SVGID_70_);}
</style>
<g id="BACKGROUND">
</g>
<g id="OBJECTS">
	<g>
		<linearGradient id="SVGID_1_" gradientUnits="userSpaceOnUse" x1="21.6691" y1="42.4531" x2="66.1973" y2="42.4531">
			<stop  offset="0" style="stop-color:#008CC1"/>
			<stop  offset="1" style="stop-color:#00A5DC"/>
		</linearGradient>
		
			<rect x="21.67" y="35.13" style="opacity:0.3;fill-rule:evenodd;clip-rule:evenodd;fill:url(#SVGID_1_);" width="44.53" height="14.64"/>
		<linearGradient id="SVGID_2_" gradientUnits="userSpaceOnUse" x1="28.2517" y1="36.3469" x2="37.2364" y2="36.3469">
			<stop  offset="0" style="stop-color:#008CC1"/>
			<stop  offset="1" style="stop-color:#00A5DC"/>
		</linearGradient>
		<rect x="28.25" y="22.97" style="fill-rule:evenodd;clip-rule:evenodd;fill:url(#SVGID_2_);" width="8.98" height="26.76"/>
		<linearGradient id="SVGID_3_" gradientUnits="userSpaceOnUse" x1="38.0748" y1="41.7979" x2="44.8856" y2="41.7979">
			<stop  offset="0" style="stop-color:#008CC1"/>
			<stop  offset="1" style="stop-color:#00A5DC"/>
		</linearGradient>
		<rect x="38.07" y="33.87" style="fill-rule:evenodd;clip-rule:evenodd;fill:url(#SVGID_3_);" width="6.81" height="15.86"/>
		<linearGradient id="SVGID_4_" gradientUnits="userSpaceOnUse" x1="53.6267" y1="39.8559" x2="60.4375" y2="39.8559">
			<stop  offset="0" style="stop-color:#008CC1"/>
			<stop  offset="1" style="stop-color:#00A5DC"/>
		</linearGradient>
		<rect x="53.63" y="29.98" style="fill-rule:evenodd;clip-rule:evenodd;fill:url(#SVGID_4_);" width="6.81" height="19.74"/>
		<linearGradient id="SVGID_5_" gradientUnits="userSpaceOnUse" x1="62.2827" y1="43.8388" x2="64.8528" y2="43.8388">
			<stop  offset="0" style="stop-color:#008CC1"/>
			<stop  offset="1" style="stop-color:#00A5DC"/>
		</linearGradient>
		<rect x="62.28" y="37.95" class="st28" width="2.57" height="11.78"/>
		<linearGradient id="SVGID_6_" gradientUnits="userSpaceOnUse" x1="45.8508" y1="30.8335" x2="52.6616" y2="30.8335">
			<stop  offset="0" style="stop-color:#008CC1"/>
			<stop  offset="1" style="stop-color:#00A5DC"/>
		</linearGradient>
		<path class="st29" d="M52.66,49.76h-6.81V14.66c0.36-1.55,1.69-2.68,3.24-2.75c1.66-0.08,3.18,1.08,3.57,2.75V49.76z"/>
		<linearGradient id="SVGID_7_" gradientUnits="userSpaceOnUse" x1="19.4" y1="43.9061" x2="26.8201" y2="43.9061">
			<stop  offset="0" style="stop-color:#008CC1"/>
			<stop  offset="1" style="stop-color:#00A5DC"/>
		</linearGradient>
		<rect x="19.4" y="38.08" class="st30" width="7.42" height="11.66"/>
		<rect x="20.39" y="39.6" class="st81" width="2.56" height="0.4"/>
		<rect x="20.39" y="41.14" class="st81" width="2.56" height="0.4"/>
		<rect x="20.39" y="42.75" class="st81" width="2.56" height="0.4"/>
		<rect x="20.39" y="44.28" class="st81" width="2.56" height="0.4"/>
		<rect x="20.39" y="45.82" class="st81" width="2.56" height="0.4"/>
		<rect x="20.39" y="47.36" class="st81" width="2.56" height="0.4"/>
		<rect x="23.34" y="39.63" class="st81" width="2.56" height="0.4"/>
		<rect x="23.34" y="41.17" class="st81" width="2.56" height="0.4"/>
		<rect x="23.34" y="42.78" class="st81" width="2.56" height="0.4"/>
		<rect x="23.34" y="44.32" class="st81" width="2.56" height="0.4"/>
		<rect x="23.34" y="45.86" class="st81" width="2.56" height="0.4"/>
		<rect x="23.34" y="47.4" class="st81" width="2.56" height="0.4"/>
		<rect x="28.79" y="21.7" class="st119" width="8.14" height="1.27"/>
		<rect x="28.51" y="21.26" class="st120" width="8.65" height="0.43"/>
		<rect x="40.71" y="45.3" class="st119" width="8.4" height="0.82"/>
		<linearGradient id="SVGID_8_" gradientUnits="userSpaceOnUse" x1="61.6748" y1="44.6676" x2="69.694" y2="44.6676">
			<stop  offset="0" style="stop-color:#008CC1"/>
			<stop  offset="1" style="stop-color:#00A5DC"/>
		</linearGradient>
		<rect x="61.67" y="39.61" class="st38" width="8.02" height="10.12"/>
		<linearGradient id="SVGID_9_" gradientUnits="userSpaceOnUse" x1="40.6876" y1="47.9128" x2="49.1145" y2="47.9128">
			<stop  offset="0" style="stop-color:#008CC1"/>
			<stop  offset="1" style="stop-color:#00A5DC"/>
		</linearGradient>
		<rect x="40.69" y="46.12" class="st39" width="8.43" height="3.58"/>
		<g>
			<rect x="41.75" y="47.27" class="st81" width="0.39" height="0.79"/>
			<rect x="42.35" y="47.27" class="st81" width="0.39" height="0.79"/>
		</g>
		<g>
			<rect x="43.49" y="47.27" class="st81" width="0.39" height="0.79"/>
			<rect x="44.08" y="47.27" class="st81" width="0.39" height="0.79"/>
		</g>
		<g>
			<rect x="45.34" y="47.27" class="st81" width="0.39" height="0.79"/>
			<rect x="45.93" y="47.27" class="st81" width="0.39" height="0.79"/>
		</g>
		<g>
			<rect x="47.1" y="47.27" class="st81" width="0.39" height="0.79"/>
			<rect x="47.7" y="47.27" class="st81" width="0.39" height="0.79"/>
		</g>
		<g>
			<rect x="41" y="45.45" class="st81" width="0.24" height="0.52"/>
			<rect x="41.43" y="45.45" class="st81" width="0.24" height="0.52"/>
			<rect x="41.85" y="45.45" class="st81" width="0.24" height="0.52"/>
			<rect x="42.28" y="45.45" class="st81" width="0.24" height="0.52"/>
			<rect x="42.7" y="45.45" class="st81" width="0.24" height="0.52"/>
			<rect x="43.13" y="45.45" class="st81" width="0.24" height="0.52"/>
			<rect x="43.55" y="45.45" class="st81" width="0.24" height="0.52"/>
			<rect x="43.98" y="45.45" class="st81" width="0.24" height="0.52"/>
			<rect x="44.43" y="45.45" class="st81" width="0.24" height="0.52"/>
			<rect x="44.86" y="45.45" class="st81" width="0.24" height="0.52"/>
			<rect x="45.28" y="45.45" class="st81" width="0.24" height="0.52"/>
			<rect x="45.71" y="45.45" class="st81" width="0.24" height="0.52"/>
			<rect x="46.13" y="45.45" class="st81" width="0.24" height="0.52"/>
			<rect x="46.56" y="45.45" class="st81" width="0.24" height="0.52"/>
			<rect x="46.98" y="45.45" class="st81" width="0.24" height="0.52"/>
			<rect x="47.41" y="45.45" class="st81" width="0.24" height="0.52"/>
			<rect x="47.85" y="45.45" class="st81" width="0.24" height="0.52"/>
			<rect x="48.27" y="45.45" class="st81" width="0.24" height="0.52"/>
			<rect x="48.7" y="45.45" class="st81" width="0.24" height="0.52"/>
		</g>
		<rect x="29.07" y="21.96" class="st81" width="0.24" height="0.96"/>
		<rect x="29.89" y="21.96" class="st81" width="0.24" height="0.96"/>
		<rect x="30.72" y="21.96" class="st81" width="0.24" height="0.96"/>
		<rect x="31.54" y="21.96" class="st81" width="0.24" height="0.96"/>
		<rect x="32.39" y="21.96" class="st81" width="0.24" height="0.96"/>
		<rect x="33.21" y="21.96" class="st81" width="0.24" height="0.96"/>
		<rect x="34.04" y="21.96" class="st81" width="0.24" height="0.96"/>
		<rect x="34.86" y="21.96" class="st81" width="0.24" height="0.96"/>
		<rect x="35.71" y="21.96" class="st81" width="0.24" height="0.96"/>
		<rect x="36.53" y="21.96" class="st81" width="0.24" height="0.96"/>
		<linearGradient id="SVGID_10_" gradientUnits="userSpaceOnUse" x1="55.7843" y1="15.7577" x2="63.6317" y2="15.7577">
			<stop  offset="0" style="stop-color:#008CC1"/>
			<stop  offset="1" style="stop-color:#00A5DC"/>
		</linearGradient>
		<path class="st40" d="M56.53,16.61c0.11,0,0.22,0.02,0.32,0.06c0.04-0.05,0.11-0.08,0.18-0.08c0.03,0,0.06,0.01,0.09,0.02
			c0.02-0.21,0.19-0.37,0.4-0.37c0.09,0,0.18,0.03,0.25,0.08c0.04-0.06,0.11-0.1,0.19-0.1c0.01,0,0.03,0,0.04,0
			c-0.03-0.06-0.04-0.13-0.04-0.21c0-0.29,0.23-0.52,0.52-0.52c0.05,0,0.11,0.01,0.15,0.02c0.04-0.08,0.12-0.14,0.22-0.14l0.01,0
			c0-0.02,0-0.04,0-0.06c0-0.52,0.42-0.94,0.94-0.94c0.52,0,0.94,0.42,0.94,0.94c0,0.01,0,0.01,0,0.02
			c0.05-0.01,0.09-0.02,0.14-0.02c0.1,0,0.19,0.02,0.27,0.07c0.14-0.19,0.36-0.31,0.61-0.31c0.42,0,0.75,0.34,0.75,0.75
			c0,0.08-0.01,0.16-0.04,0.23c0.01,0,0.02,0,0.02,0c0.2,0,0.37,0.17,0.37,0.37c0,0.02,0,0.05-0.01,0.07c0,0,0.01,0,0.01,0
			c0.12,0,0.21,0.09,0.21,0.21c0.03-0.01,0.07-0.01,0.1-0.01c0.13,0,0.26,0.05,0.35,0.13c0.24,0.23-0.02,0.29-0.28,0.29h-0.33h-0.26
			h-5.32h-0.42h-0.68c-0.26,0-0.64,0.04-0.38-0.23C56.04,16.72,56.27,16.61,56.53,16.61z"/>
		<rect x="66.2" y="40.53" class="st81" width="2.56" height="0.4"/>
		<rect x="66.2" y="42.07" class="st81" width="2.56" height="0.4"/>
		<rect x="66.2" y="43.68" class="st81" width="2.56" height="0.4"/>
		<rect x="66.2" y="45.22" class="st81" width="2.56" height="0.4"/>
		<rect x="66.2" y="46.76" class="st81" width="2.56" height="0.4"/>
		<rect x="54.04" y="28.74" class="st119" width="5.78" height="1.27"/>
		<rect x="53.84" y="28.3" class="st120" width="6.15" height="0.43"/>
		<rect x="54.24" y="29" class="st81" width="0.17" height="0.96"/>
		<rect x="54.83" y="29" class="st81" width="0.17" height="0.96"/>
		<rect x="55.41" y="29" class="st81" width="0.17" height="0.96"/>
		<rect x="56" y="29" class="st81" width="0.17" height="0.96"/>
		<rect x="56.6" y="29" class="st81" width="0.17" height="0.96"/>
		<rect x="57.18" y="29" class="st81" width="0.17" height="0.96"/>
		<rect x="57.77" y="29" class="st81" width="0.17" height="0.96"/>
		<rect x="58.35" y="29" class="st81" width="0.17" height="0.96"/>
		<rect x="58.95" y="29" class="st81" width="0.17" height="0.96"/>
		<rect x="59.54" y="29" class="st81" width="0.17" height="0.96"/>
		<rect x="33.71" y="25.41" class="st81" width="1.82" height="3.33"/>
		<rect x="30.16" y="25.41" class="st81" width="1.85" height="3.33"/>
		<rect x="33.79" y="31.91" class="st81" width="1.82" height="3.33"/>
		<rect x="30.24" y="31.91" class="st81" width="1.85" height="3.33"/>
		<rect x="33.83" y="38.14" class="st81" width="1.82" height="3.33"/>
		<rect x="30.28" y="38.14" class="st81" width="1.85" height="3.33"/>
		<g>
			<rect x="42.09" y="35.12" class="st81" width="1.57" height="1.76"/>
			<rect x="39.3" y="35.12" class="st81" width="1.57" height="1.76"/>
			<rect x="42.09" y="39.35" class="st81" width="1.57" height="1.76"/>
			<rect x="39.3" y="39.35" class="st81" width="1.57" height="1.76"/>
			<rect x="42.09" y="43.54" class="st81" width="1.57" height="1.76"/>
			<rect x="39.3" y="43.54" class="st81" width="1.57" height="1.76"/>
		</g>
		<rect x="49.87" y="15.76" class="st81" width="1.56" height="1.76"/>
		<rect x="47.08" y="15.76" class="st81" width="1.56" height="1.76"/>
		<rect x="49.87" y="19.91" class="st81" width="1.56" height="1.76"/>
		<rect x="47.08" y="19.91" class="st81" width="1.56" height="1.76"/>
		<rect x="49.87" y="24.14" class="st81" width="1.56" height="1.76"/>
		<rect x="47.08" y="24.14" class="st81" width="1.56" height="1.76"/>
		<rect x="49.87" y="28.32" class="st81" width="1.56" height="1.76"/>
		<rect x="47.08" y="28.32" class="st81" width="1.56" height="1.76"/>
		<rect x="49.87" y="32.6" class="st81" width="1.56" height="1.76"/>
		<rect x="47.09" y="32.6" class="st81" width="1.56" height="1.76"/>
		<rect x="49.88" y="36.75" class="st81" width="1.56" height="1.76"/>
		<rect x="47.09" y="36.75" class="st81" width="1.56" height="1.76"/>
		<rect x="49.88" y="40.98" class="st81" width="1.56" height="1.76"/>
		<rect x="47.09" y="40.98" class="st81" width="1.56" height="1.76"/>
		<g>
			<rect x="57.64" y="30.91" class="st81" width="1.57" height="1.76"/>
			<rect x="54.85" y="30.91" class="st81" width="1.57" height="1.76"/>
			<rect x="57.64" y="35.06" class="st81" width="1.57" height="1.76"/>
			<rect x="54.85" y="35.06" class="st81" width="1.57" height="1.76"/>
			<rect x="57.64" y="39.29" class="st81" width="1.57" height="1.76"/>
			<rect x="54.85" y="39.29" class="st81" width="1.57" height="1.76"/>
			<rect x="57.64" y="43.48" class="st81" width="1.57" height="1.76"/>
			<rect x="54.86" y="43.48" class="st81" width="1.57" height="1.76"/>
		</g>
		<rect x="40.48" y="44.85" class="st120" width="8.95" height="0.43"/>
	</g>
</g>
<g id="DESIGNED_BY_FREEPIK">
</g>
</svg>
